<mxfile host="app.diagrams.net" modified="2023-07-05T06:56:18.092Z" agent="Mozilla/5.0 (Windows NT 10.0; Win64; x64) AppleWebKit/537.36 (KHTML, like Gecko) Chrome/114.0.0.0 Safari/537.36" etag="xMUEm4LenANZ-F9dJUX0" version="21.5.2" type="github">
  <diagram name="CR" id="-hj26rZd8-g5TWYFawQo">
    <mxGraphModel dx="818" dy="492" grid="1" gridSize="10" guides="1" tooltips="1" connect="1" arrows="0" fold="1" page="1" pageScale="1" pageWidth="1169" pageHeight="827" math="0" shadow="0">
      <root>
        <mxCell id="0" />
        <mxCell id="1" parent="0" />
        <mxCell id="bH6gv9mdCXaSQuvATHA7-13" value="&lt;font&gt;PIC#1 frametype 0&lt;/font&gt;" style="rounded=0;whiteSpace=wrap;html=1;fillColor=#60a917;fontColor=#FFFFFF;strokeColor=#2D7600;labelBackgroundColor=none;" vertex="1" parent="1">
          <mxGeometry x="159" y="280" width="80" height="80" as="geometry" />
        </mxCell>
        <mxCell id="bH6gv9mdCXaSQuvATHA7-14" value="" style="group;fillColor=none;labelBackgroundColor=none;whiteSpace=wrap;html=1;" vertex="1" connectable="0" parent="1">
          <mxGeometry x="399" y="280" width="100" height="80" as="geometry" />
        </mxCell>
        <mxCell id="bH6gv9mdCXaSQuvATHA7-9" value="A" style="rounded=0;whiteSpace=wrap;html=1;fillColor=#60a917;strokeColor=#2D7600;fontColor=#ffffff;" vertex="1" parent="bH6gv9mdCXaSQuvATHA7-14">
          <mxGeometry width="40" height="40" as="geometry" />
        </mxCell>
        <mxCell id="bH6gv9mdCXaSQuvATHA7-10" value="" style="rounded=0;whiteSpace=wrap;html=1;fillColor=#f8cecc;strokeColor=#b85450;" vertex="1" parent="bH6gv9mdCXaSQuvATHA7-14">
          <mxGeometry x="40" width="40" height="40" as="geometry" />
        </mxCell>
        <mxCell id="bH6gv9mdCXaSQuvATHA7-11" value="" style="rounded=0;whiteSpace=wrap;html=1;fillColor=#f8cecc;strokeColor=#b85450;" vertex="1" parent="bH6gv9mdCXaSQuvATHA7-14">
          <mxGeometry y="40" width="40" height="40" as="geometry" />
        </mxCell>
        <mxCell id="bH6gv9mdCXaSQuvATHA7-12" value="" style="rounded=0;whiteSpace=wrap;html=1;fillColor=#f8cecc;strokeColor=#b85450;" vertex="1" parent="bH6gv9mdCXaSQuvATHA7-14">
          <mxGeometry x="40" y="40" width="40" height="40" as="geometry" />
        </mxCell>
        <mxCell id="bH6gv9mdCXaSQuvATHA7-104" value="&lt;span style=&quot;border-color: var(--border-color); color: rgb(0, 0, 0); font-family: Helvetica; font-size: 12px; font-style: normal; font-variant-ligatures: normal; font-variant-caps: normal; font-weight: 400; letter-spacing: normal; orphans: 2; text-align: center; text-indent: 0px; text-transform: none; widows: 2; word-spacing: 0px; -webkit-text-stroke-width: 0px; text-decoration-thickness: initial; text-decoration-style: initial; text-decoration-color: initial; float: none; display: inline !important;&quot;&gt;PIC#n&lt;/span&gt;&lt;br style=&quot;border-color: var(--border-color); color: rgb(0, 0, 0); font-family: Helvetica; font-size: 12px; font-style: normal; font-variant-ligatures: normal; font-variant-caps: normal; font-weight: 400; letter-spacing: normal; orphans: 2; text-align: center; text-indent: 0px; text-transform: none; widows: 2; word-spacing: 0px; -webkit-text-stroke-width: 0px; text-decoration-thickness: initial; text-decoration-style: initial; text-decoration-color: initial;&quot;&gt;&lt;span style=&quot;border-color: var(--border-color); color: rgb(0, 0, 0); font-family: Helvetica; font-size: 12px; font-style: normal; font-variant-ligatures: normal; font-variant-caps: normal; font-weight: 400; letter-spacing: normal; orphans: 2; text-align: center; text-indent: 0px; text-transform: none; widows: 2; word-spacing: 0px; -webkit-text-stroke-width: 0px; text-decoration-thickness: initial; text-decoration-style: initial; text-decoration-color: initial; float: none; display: inline !important;&quot;&gt;frametype 2&lt;/span&gt;" style="rounded=0;whiteSpace=wrap;html=1;opacity=0;" vertex="1" parent="bH6gv9mdCXaSQuvATHA7-14">
          <mxGeometry y="15" width="80" height="50" as="geometry" />
        </mxCell>
        <mxCell id="bH6gv9mdCXaSQuvATHA7-59" style="edgeStyle=orthogonalEdgeStyle;rounded=0;orthogonalLoop=1;jettySize=auto;html=1;exitX=0.5;exitY=0;exitDx=0;exitDy=0;entryX=0.5;entryY=1;entryDx=0;entryDy=0;" edge="1" parent="1" source="bH6gv9mdCXaSQuvATHA7-15" target="bH6gv9mdCXaSQuvATHA7-41">
          <mxGeometry relative="1" as="geometry" />
        </mxCell>
        <mxCell id="bH6gv9mdCXaSQuvATHA7-78" style="edgeStyle=orthogonalEdgeStyle;rounded=0;orthogonalLoop=1;jettySize=auto;html=1;exitX=0.5;exitY=1;exitDx=0;exitDy=0;entryX=0.5;entryY=0;entryDx=0;entryDy=0;" edge="1" parent="1" source="bH6gv9mdCXaSQuvATHA7-15" target="bH6gv9mdCXaSQuvATHA7-33">
          <mxGeometry relative="1" as="geometry" />
        </mxCell>
        <mxCell id="bH6gv9mdCXaSQuvATHA7-15" value="PIC#0 frametype 0" style="rounded=0;whiteSpace=wrap;html=1;fillColor=#60a917;fontColor=#ffffff;strokeColor=#2D7600;" vertex="1" parent="1">
          <mxGeometry x="39" y="280" width="80" height="80" as="geometry" />
        </mxCell>
        <mxCell id="bH6gv9mdCXaSQuvATHA7-67" style="edgeStyle=orthogonalEdgeStyle;rounded=0;orthogonalLoop=1;jettySize=auto;html=1;exitX=0.5;exitY=0;exitDx=0;exitDy=0;entryX=0.5;entryY=1;entryDx=0;entryDy=0;" edge="1" parent="1" source="bH6gv9mdCXaSQuvATHA7-16" target="bH6gv9mdCXaSQuvATHA7-63">
          <mxGeometry relative="1" as="geometry" />
        </mxCell>
        <mxCell id="bH6gv9mdCXaSQuvATHA7-16" value="&lt;span style=&quot;font-family: Helvetica; font-size: 12px; font-style: normal; font-variant-ligatures: normal; font-variant-caps: normal; font-weight: 400; letter-spacing: normal; orphans: 2; text-align: center; text-indent: 0px; text-transform: none; widows: 2; word-spacing: 0px; -webkit-text-stroke-width: 0px; text-decoration-thickness: initial; text-decoration-style: initial; text-decoration-color: initial; float: none; display: inline !important;&quot;&gt;PIC#n-1&lt;/span&gt;&lt;br style=&quot;border-color: var(--border-color); font-family: Helvetica; font-size: 12px; font-style: normal; font-variant-ligatures: normal; font-variant-caps: normal; font-weight: 400; letter-spacing: normal; orphans: 2; text-align: center; text-indent: 0px; text-transform: none; widows: 2; word-spacing: 0px; -webkit-text-stroke-width: 0px; text-decoration-thickness: initial; text-decoration-style: initial; text-decoration-color: initial;&quot;&gt;&lt;span style=&quot;font-family: Helvetica; font-size: 12px; font-style: normal; font-variant-ligatures: normal; font-variant-caps: normal; font-weight: 400; letter-spacing: normal; orphans: 2; text-align: center; text-indent: 0px; text-transform: none; widows: 2; word-spacing: 0px; -webkit-text-stroke-width: 0px; text-decoration-thickness: initial; text-decoration-style: initial; text-decoration-color: initial; float: none; display: inline !important;&quot;&gt;frametype 1&lt;/span&gt;" style="rounded=0;whiteSpace=wrap;html=1;fillColor=#60a917;fontColor=#FFFFFF;strokeColor=#2D7600;" vertex="1" parent="1">
          <mxGeometry x="279" y="280" width="80" height="80" as="geometry" />
        </mxCell>
        <mxCell id="bH6gv9mdCXaSQuvATHA7-17" value="" style="group;fillColor=none;" vertex="1" connectable="0" parent="1">
          <mxGeometry x="519" y="280" width="80" height="80" as="geometry" />
        </mxCell>
        <mxCell id="bH6gv9mdCXaSQuvATHA7-18" value="A" style="rounded=0;whiteSpace=wrap;html=1;fillColor=#60a917;strokeColor=#2D7600;fontColor=#ffffff;" vertex="1" parent="bH6gv9mdCXaSQuvATHA7-17">
          <mxGeometry width="40" height="40" as="geometry" />
        </mxCell>
        <mxCell id="bH6gv9mdCXaSQuvATHA7-19" value="" style="rounded=0;whiteSpace=wrap;html=1;fillColor=#f8cecc;strokeColor=#b85450;" vertex="1" parent="bH6gv9mdCXaSQuvATHA7-17">
          <mxGeometry x="40" width="40" height="40" as="geometry" />
        </mxCell>
        <mxCell id="bH6gv9mdCXaSQuvATHA7-20" value="" style="rounded=0;whiteSpace=wrap;html=1;fillColor=#f8cecc;strokeColor=#b85450;" vertex="1" parent="bH6gv9mdCXaSQuvATHA7-17">
          <mxGeometry y="40" width="40" height="40" as="geometry" />
        </mxCell>
        <mxCell id="bH6gv9mdCXaSQuvATHA7-21" value="" style="rounded=0;whiteSpace=wrap;html=1;fillColor=#f8cecc;strokeColor=#b85450;" vertex="1" parent="bH6gv9mdCXaSQuvATHA7-17">
          <mxGeometry x="40" y="40" width="40" height="40" as="geometry" />
        </mxCell>
        <mxCell id="bH6gv9mdCXaSQuvATHA7-31" value="&lt;span style=&quot;color: rgb(0, 0, 0); font-family: Helvetica; font-size: 12px; font-style: normal; font-variant-ligatures: normal; font-variant-caps: normal; font-weight: 400; letter-spacing: normal; orphans: 2; text-indent: 0px; text-transform: none; widows: 2; word-spacing: 0px; -webkit-text-stroke-width: 0px; text-decoration-thickness: initial; text-decoration-style: initial; text-decoration-color: initial; float: none; display: inline !important;&quot;&gt;PIC#m-1&lt;/span&gt;&lt;br style=&quot;border-color: var(--border-color); color: rgb(0, 0, 0); font-family: Helvetica; font-size: 12px; font-style: normal; font-variant-ligatures: normal; font-variant-caps: normal; font-weight: 400; letter-spacing: normal; orphans: 2; text-indent: 0px; text-transform: none; widows: 2; word-spacing: 0px; -webkit-text-stroke-width: 0px; text-decoration-thickness: initial; text-decoration-style: initial; text-decoration-color: initial;&quot;&gt;&lt;span style=&quot;color: rgb(0, 0, 0); font-family: Helvetica; font-size: 12px; font-style: normal; font-variant-ligatures: normal; font-variant-caps: normal; font-weight: 400; letter-spacing: normal; orphans: 2; text-indent: 0px; text-transform: none; widows: 2; word-spacing: 0px; -webkit-text-stroke-width: 0px; text-decoration-thickness: initial; text-decoration-style: initial; text-decoration-color: initial; float: none; display: inline !important;&quot;&gt;frametype 2&lt;/span&gt;" style="text;whiteSpace=wrap;html=1;align=center;opacity=0;" vertex="1" parent="bH6gv9mdCXaSQuvATHA7-17">
          <mxGeometry y="20" width="80" height="40" as="geometry" />
        </mxCell>
        <mxCell id="bH6gv9mdCXaSQuvATHA7-22" value="" style="group;fillColor=none;" vertex="1" connectable="0" parent="1">
          <mxGeometry x="639" y="280" width="80" height="80" as="geometry" />
        </mxCell>
        <mxCell id="bH6gv9mdCXaSQuvATHA7-23" value="A" style="rounded=0;whiteSpace=wrap;html=1;fillColor=#60a917;strokeColor=#2D7600;fontColor=#ffffff;" vertex="1" parent="bH6gv9mdCXaSQuvATHA7-22">
          <mxGeometry width="40" height="40" as="geometry" />
        </mxCell>
        <mxCell id="bH6gv9mdCXaSQuvATHA7-24" value="" style="rounded=0;whiteSpace=wrap;html=1;fillColor=#f8cecc;strokeColor=#b85450;" vertex="1" parent="bH6gv9mdCXaSQuvATHA7-22">
          <mxGeometry x="40" width="40" height="40" as="geometry" />
        </mxCell>
        <mxCell id="bH6gv9mdCXaSQuvATHA7-25" value="" style="rounded=0;whiteSpace=wrap;html=1;fillColor=#f8cecc;strokeColor=#b85450;" vertex="1" parent="bH6gv9mdCXaSQuvATHA7-22">
          <mxGeometry y="40" width="40" height="40" as="geometry" />
        </mxCell>
        <mxCell id="bH6gv9mdCXaSQuvATHA7-26" value="" style="rounded=0;whiteSpace=wrap;html=1;fillColor=#f8cecc;strokeColor=#b85450;" vertex="1" parent="bH6gv9mdCXaSQuvATHA7-22">
          <mxGeometry x="40" y="40" width="40" height="40" as="geometry" />
        </mxCell>
        <mxCell id="bH6gv9mdCXaSQuvATHA7-32" value="&lt;span style=&quot;color: rgb(0, 0, 0); font-family: Helvetica; font-size: 12px; font-style: normal; font-variant-ligatures: normal; font-variant-caps: normal; font-weight: 400; letter-spacing: normal; orphans: 2; text-indent: 0px; text-transform: none; widows: 2; word-spacing: 0px; -webkit-text-stroke-width: 0px; text-decoration-thickness: initial; text-decoration-style: initial; text-decoration-color: initial; float: none; display: inline !important;&quot;&gt;PIC#m&lt;/span&gt;&lt;br style=&quot;border-color: var(--border-color); color: rgb(0, 0, 0); font-family: Helvetica; font-size: 12px; font-style: normal; font-variant-ligatures: normal; font-variant-caps: normal; font-weight: 400; letter-spacing: normal; orphans: 2; text-indent: 0px; text-transform: none; widows: 2; word-spacing: 0px; -webkit-text-stroke-width: 0px; text-decoration-thickness: initial; text-decoration-style: initial; text-decoration-color: initial;&quot;&gt;&lt;span style=&quot;color: rgb(0, 0, 0); font-family: Helvetica; font-size: 12px; font-style: normal; font-variant-ligatures: normal; font-variant-caps: normal; font-weight: 400; letter-spacing: normal; orphans: 2; text-indent: 0px; text-transform: none; widows: 2; word-spacing: 0px; -webkit-text-stroke-width: 0px; text-decoration-thickness: initial; text-decoration-style: initial; text-decoration-color: initial; float: none; display: inline !important;&quot;&gt;frametype 3&lt;/span&gt;" style="text;whiteSpace=wrap;html=1;align=center;labelBackgroundColor=none;" vertex="1" parent="bH6gv9mdCXaSQuvATHA7-22">
          <mxGeometry y="20" width="80" height="40" as="geometry" />
        </mxCell>
        <mxCell id="bH6gv9mdCXaSQuvATHA7-71" style="edgeStyle=orthogonalEdgeStyle;rounded=0;orthogonalLoop=1;jettySize=auto;html=1;exitX=0.5;exitY=0;exitDx=0;exitDy=0;entryX=0.5;entryY=1;entryDx=0;entryDy=0;" edge="1" parent="1" source="bH6gv9mdCXaSQuvATHA7-27" target="bH6gv9mdCXaSQuvATHA7-47">
          <mxGeometry relative="1" as="geometry" />
        </mxCell>
        <mxCell id="bH6gv9mdCXaSQuvATHA7-82" style="edgeStyle=orthogonalEdgeStyle;rounded=0;orthogonalLoop=1;jettySize=auto;html=1;exitX=0.5;exitY=1;exitDx=0;exitDy=0;entryX=0.5;entryY=0;entryDx=0;entryDy=0;" edge="1" parent="1" source="bH6gv9mdCXaSQuvATHA7-27" target="bH6gv9mdCXaSQuvATHA7-39">
          <mxGeometry relative="1" as="geometry" />
        </mxCell>
        <mxCell id="bH6gv9mdCXaSQuvATHA7-27" value="&lt;span style=&quot;font-family: Helvetica; font-size: 12px; font-style: normal; font-variant-ligatures: normal; font-variant-caps: normal; font-weight: 400; letter-spacing: normal; orphans: 2; text-align: center; text-indent: 0px; text-transform: none; widows: 2; word-spacing: 0px; -webkit-text-stroke-width: 0px; text-decoration-thickness: initial; text-decoration-style: initial; text-decoration-color: initial; float: none; display: inline !important;&quot;&gt;PIC#m+1&lt;/span&gt;&lt;br style=&quot;border-color: var(--border-color); font-family: Helvetica; font-size: 12px; font-style: normal; font-variant-ligatures: normal; font-variant-caps: normal; font-weight: 400; letter-spacing: normal; orphans: 2; text-align: center; text-indent: 0px; text-transform: none; widows: 2; word-spacing: 0px; -webkit-text-stroke-width: 0px; text-decoration-thickness: initial; text-decoration-style: initial; text-decoration-color: initial;&quot;&gt;&lt;span style=&quot;font-family: Helvetica; font-size: 12px; font-style: normal; font-variant-ligatures: normal; font-variant-caps: normal; font-weight: 400; letter-spacing: normal; orphans: 2; text-align: center; text-indent: 0px; text-transform: none; widows: 2; word-spacing: 0px; -webkit-text-stroke-width: 0px; text-decoration-thickness: initial; text-decoration-style: initial; text-decoration-color: initial; float: none; display: inline !important;&quot;&gt;frametype 1&lt;/span&gt;" style="rounded=0;whiteSpace=wrap;html=1;fillColor=#60a917;fontColor=#ffffff;strokeColor=#2D7600;labelBackgroundColor=none;" vertex="1" parent="1">
          <mxGeometry x="799" y="280" width="80" height="80" as="geometry" />
        </mxCell>
        <mxCell id="bH6gv9mdCXaSQuvATHA7-73" style="edgeStyle=orthogonalEdgeStyle;rounded=0;orthogonalLoop=1;jettySize=auto;html=1;exitX=0.5;exitY=0;exitDx=0;exitDy=0;entryX=0.5;entryY=1;entryDx=0;entryDy=0;" edge="1" parent="1" source="bH6gv9mdCXaSQuvATHA7-28" target="bH6gv9mdCXaSQuvATHA7-48">
          <mxGeometry relative="1" as="geometry" />
        </mxCell>
        <mxCell id="bH6gv9mdCXaSQuvATHA7-28" value="PIC#m+2&lt;br style=&quot;border-color: var(--border-color);&quot;&gt;&lt;span style=&quot;&quot;&gt;frametype 1&lt;/span&gt;" style="rounded=0;whiteSpace=wrap;html=1;fillColor=#60a917;fontColor=#FFFFFF;strokeColor=#2D7600;" vertex="1" parent="1">
          <mxGeometry x="959" y="280" width="80" height="80" as="geometry" />
        </mxCell>
        <mxCell id="bH6gv9mdCXaSQuvATHA7-33" value="" style="whiteSpace=wrap;html=1;aspect=fixed;fillColor=#cce5ff;strokeColor=#36393d;" vertex="1" parent="1">
          <mxGeometry x="39" y="440" width="80" height="80" as="geometry" />
        </mxCell>
        <mxCell id="bH6gv9mdCXaSQuvATHA7-34" value="" style="whiteSpace=wrap;html=1;aspect=fixed;fillColor=#cce5ff;strokeColor=#36393d;" vertex="1" parent="1">
          <mxGeometry x="159" y="440" width="80" height="80" as="geometry" />
        </mxCell>
        <mxCell id="bH6gv9mdCXaSQuvATHA7-35" value="" style="whiteSpace=wrap;html=1;aspect=fixed;fillColor=#cce5ff;strokeColor=#36393d;" vertex="1" parent="1">
          <mxGeometry x="279" y="440" width="80" height="80" as="geometry" />
        </mxCell>
        <mxCell id="bH6gv9mdCXaSQuvATHA7-37" value="" style="whiteSpace=wrap;html=1;aspect=fixed;fillColor=#cce5ff;strokeColor=#36393d;" vertex="1" parent="1">
          <mxGeometry x="509" y="440" width="80" height="80" as="geometry" />
        </mxCell>
        <mxCell id="bH6gv9mdCXaSQuvATHA7-38" value="" style="whiteSpace=wrap;html=1;aspect=fixed;fillColor=#cce5ff;strokeColor=#36393d;" vertex="1" parent="1">
          <mxGeometry x="639" y="440" width="80" height="80" as="geometry" />
        </mxCell>
        <mxCell id="bH6gv9mdCXaSQuvATHA7-39" value="" style="whiteSpace=wrap;html=1;aspect=fixed;fillColor=#cce5ff;strokeColor=#36393d;" vertex="1" parent="1">
          <mxGeometry x="799" y="440" width="80" height="80" as="geometry" />
        </mxCell>
        <mxCell id="bH6gv9mdCXaSQuvATHA7-40" value="" style="whiteSpace=wrap;html=1;aspect=fixed;fillColor=#cce5ff;strokeColor=#36393d;" vertex="1" parent="1">
          <mxGeometry x="959" y="440" width="80" height="80" as="geometry" />
        </mxCell>
        <mxCell id="bH6gv9mdCXaSQuvATHA7-41" value="" style="whiteSpace=wrap;html=1;aspect=fixed;fillColor=#e51400;fontColor=#ffffff;strokeColor=#B20000;" vertex="1" parent="1">
          <mxGeometry x="39" y="120" width="80" height="80" as="geometry" />
        </mxCell>
        <mxCell id="bH6gv9mdCXaSQuvATHA7-42" value="" style="whiteSpace=wrap;html=1;aspect=fixed;fillColor=#e51400;fontColor=#ffffff;strokeColor=#B20000;" vertex="1" parent="1">
          <mxGeometry x="159" y="120" width="80" height="80" as="geometry" />
        </mxCell>
        <mxCell id="bH6gv9mdCXaSQuvATHA7-44" value="" style="whiteSpace=wrap;html=1;aspect=fixed;fillColor=#cce5ff;strokeColor=#36393d;" vertex="1" parent="1">
          <mxGeometry x="399" y="440" width="80" height="80" as="geometry" />
        </mxCell>
        <mxCell id="bH6gv9mdCXaSQuvATHA7-46" value="" style="whiteSpace=wrap;html=1;aspect=fixed;fillColor=#1ba1e2;fontColor=#ffffff;strokeColor=#006EAF;" vertex="1" parent="1">
          <mxGeometry x="639" y="120" width="80" height="80" as="geometry" />
        </mxCell>
        <mxCell id="bH6gv9mdCXaSQuvATHA7-47" value="" style="whiteSpace=wrap;html=1;aspect=fixed;fillColor=#e51400;fontColor=#ffffff;strokeColor=#B20000;" vertex="1" parent="1">
          <mxGeometry x="799" y="120" width="80" height="80" as="geometry" />
        </mxCell>
        <mxCell id="bH6gv9mdCXaSQuvATHA7-48" value="" style="whiteSpace=wrap;html=1;aspect=fixed;fillColor=#e51400;fontColor=#ffffff;strokeColor=#B20000;" vertex="1" parent="1">
          <mxGeometry x="959" y="120" width="80" height="80" as="geometry" />
        </mxCell>
        <mxCell id="bH6gv9mdCXaSQuvATHA7-51" value="" style="whiteSpace=wrap;html=1;aspect=fixed;fillColor=#f8cecc;strokeColor=#b85450;" vertex="1" parent="1">
          <mxGeometry x="399" y="120" width="80" height="80" as="geometry" />
        </mxCell>
        <mxCell id="bH6gv9mdCXaSQuvATHA7-52" value="" style="rounded=0;whiteSpace=wrap;html=1;fillColor=#e3c800;strokeColor=#B09500;fontColor=#000000;" vertex="1" parent="1">
          <mxGeometry x="399" y="120" width="50" height="50" as="geometry" />
        </mxCell>
        <mxCell id="bH6gv9mdCXaSQuvATHA7-53" value="" style="rounded=0;whiteSpace=wrap;html=1;fillColor=#1ba1e2;strokeColor=#006EAF;fontColor=#ffffff;" vertex="1" parent="1">
          <mxGeometry x="399" y="120" width="40" height="40" as="geometry" />
        </mxCell>
        <mxCell id="bH6gv9mdCXaSQuvATHA7-54" value="" style="whiteSpace=wrap;html=1;aspect=fixed;fillColor=#f8cecc;strokeColor=#b85450;" vertex="1" parent="1">
          <mxGeometry x="519" y="120" width="80" height="80" as="geometry" />
        </mxCell>
        <mxCell id="bH6gv9mdCXaSQuvATHA7-55" value="" style="rounded=0;whiteSpace=wrap;html=1;fillColor=#e3c800;strokeColor=#B09500;fontColor=#000000;" vertex="1" parent="1">
          <mxGeometry x="519" y="120" width="50" height="50" as="geometry" />
        </mxCell>
        <mxCell id="bH6gv9mdCXaSQuvATHA7-56" value="" style="rounded=0;whiteSpace=wrap;html=1;fillColor=#1ba1e2;strokeColor=#006EAF;fontColor=#ffffff;" vertex="1" parent="1">
          <mxGeometry x="519" y="120" width="40" height="40" as="geometry" />
        </mxCell>
        <mxCell id="bH6gv9mdCXaSQuvATHA7-60" value="recon out&lt;br&gt;sw_dec_out_dis = 0&lt;br&gt;sw_ec_bypass = 0" style="text;html=1;strokeColor=none;fillColor=none;align=left;verticalAlign=middle;whiteSpace=wrap;rounded=0;" vertex="1" parent="1">
          <mxGeometry x="79" y="220" width="120" height="50" as="geometry" />
        </mxCell>
        <mxCell id="bH6gv9mdCXaSQuvATHA7-61" style="edgeStyle=orthogonalEdgeStyle;rounded=0;orthogonalLoop=1;jettySize=auto;html=1;exitX=1;exitY=0;exitDx=0;exitDy=0;entryX=0.5;entryY=1;entryDx=0;entryDy=0;" edge="1" parent="1" source="bH6gv9mdCXaSQuvATHA7-9" target="bH6gv9mdCXaSQuvATHA7-51">
          <mxGeometry relative="1" as="geometry" />
        </mxCell>
        <mxCell id="bH6gv9mdCXaSQuvATHA7-62" value="pp1 out&lt;br&gt;pp1 crop A, 1:1 scaling&lt;br&gt;with padding&lt;br&gt;sw_dec_out_dis = 1&lt;br&gt;sw_ec_bypass = 1" style="text;html=1;strokeColor=none;fillColor=none;align=left;verticalAlign=middle;whiteSpace=wrap;rounded=0;" vertex="1" parent="1">
          <mxGeometry x="439" y="220" width="130" height="50" as="geometry" />
        </mxCell>
        <mxCell id="bH6gv9mdCXaSQuvATHA7-63" value="" style="whiteSpace=wrap;html=1;aspect=fixed;fillColor=#f8cecc;strokeColor=#b85450;" vertex="1" parent="1">
          <mxGeometry x="279" y="120" width="80" height="80" as="geometry" />
        </mxCell>
        <mxCell id="bH6gv9mdCXaSQuvATHA7-64" value="" style="rounded=0;whiteSpace=wrap;html=1;fillColor=#e3c800;strokeColor=#B09500;fontColor=#000000;" vertex="1" parent="1">
          <mxGeometry x="279" y="120" width="50" height="50" as="geometry" />
        </mxCell>
        <mxCell id="bH6gv9mdCXaSQuvATHA7-65" value="" style="rounded=0;whiteSpace=wrap;html=1;fillColor=#1ba1e2;strokeColor=#006EAF;fontColor=#ffffff;" vertex="1" parent="1">
          <mxGeometry x="279" y="120" width="40" height="40" as="geometry" />
        </mxCell>
        <mxCell id="bH6gv9mdCXaSQuvATHA7-68" value="pp1 out&lt;br&gt;down scaling to 1/2&lt;br&gt;with padding&lt;br&gt;sw_dec_out_dis = 1&lt;br&gt;sw_ec_bypass = 0" style="text;html=1;strokeColor=none;fillColor=none;align=left;verticalAlign=middle;whiteSpace=wrap;rounded=0;" vertex="1" parent="1">
          <mxGeometry x="319" y="220" width="120" height="50" as="geometry" />
        </mxCell>
        <mxCell id="bH6gv9mdCXaSQuvATHA7-69" style="edgeStyle=orthogonalEdgeStyle;rounded=0;orthogonalLoop=1;jettySize=auto;html=1;exitX=1;exitY=0;exitDx=0;exitDy=0;entryX=0.5;entryY=1;entryDx=0;entryDy=0;" edge="1" parent="1" source="bH6gv9mdCXaSQuvATHA7-23" target="bH6gv9mdCXaSQuvATHA7-46">
          <mxGeometry relative="1" as="geometry" />
        </mxCell>
        <mxCell id="bH6gv9mdCXaSQuvATHA7-70" value="pp1 out&lt;br&gt;pp1 crop A, x2 scaling&lt;br&gt;sw_dec_out_dis = 1&lt;br&gt;sw_ec_bypass = 1" style="text;html=1;strokeColor=none;fillColor=none;align=left;verticalAlign=middle;whiteSpace=wrap;rounded=0;" vertex="1" parent="1">
          <mxGeometry x="679" y="220" width="130" height="50" as="geometry" />
        </mxCell>
        <mxCell id="bH6gv9mdCXaSQuvATHA7-72" value="recon out&lt;br&gt;sw_dec_out_dis = 0&lt;br&gt;sw_ec_bypass = 0&lt;br&gt;use fake table" style="text;html=1;strokeColor=none;fillColor=none;align=left;verticalAlign=middle;whiteSpace=wrap;rounded=0;" vertex="1" parent="1">
          <mxGeometry x="839" y="220" width="130" height="50" as="geometry" />
        </mxCell>
        <mxCell id="bH6gv9mdCXaSQuvATHA7-74" value="recon out&lt;br&gt;sw_dec_out_dis = 0&lt;br&gt;sw_ec_bypass = 0&lt;br&gt;use regular compressed table" style="text;html=1;strokeColor=none;fillColor=none;align=left;verticalAlign=middle;whiteSpace=wrap;rounded=0;" vertex="1" parent="1">
          <mxGeometry x="999" y="220" width="170" height="50" as="geometry" />
        </mxCell>
        <mxCell id="bH6gv9mdCXaSQuvATHA7-75" value="..." style="text;html=1;strokeColor=none;fillColor=none;align=center;verticalAlign=middle;whiteSpace=wrap;rounded=0;fontSize=30;" vertex="1" parent="1">
          <mxGeometry x="240" y="300" width="40" height="20" as="geometry" />
        </mxCell>
        <mxCell id="bH6gv9mdCXaSQuvATHA7-77" value="..." style="text;html=1;strokeColor=none;fillColor=none;align=center;verticalAlign=middle;whiteSpace=wrap;rounded=0;fontSize=30;" vertex="1" parent="1">
          <mxGeometry x="479" y="300" width="40" height="20" as="geometry" />
        </mxCell>
        <mxCell id="bH6gv9mdCXaSQuvATHA7-79" value="PP0&lt;br&gt;no cropping, 1:1" style="text;html=1;strokeColor=none;fillColor=none;align=left;verticalAlign=middle;whiteSpace=wrap;rounded=0;" vertex="1" parent="1">
          <mxGeometry x="79" y="370" width="120" height="50" as="geometry" />
        </mxCell>
        <mxCell id="bH6gv9mdCXaSQuvATHA7-80" style="edgeStyle=orthogonalEdgeStyle;rounded=0;orthogonalLoop=1;jettySize=auto;html=1;exitX=1;exitY=1;exitDx=0;exitDy=0;" edge="1" parent="1" source="bH6gv9mdCXaSQuvATHA7-11" target="bH6gv9mdCXaSQuvATHA7-44">
          <mxGeometry relative="1" as="geometry" />
        </mxCell>
        <mxCell id="bH6gv9mdCXaSQuvATHA7-81" value="PP0&lt;br&gt;crop A, x2 up-scaling" style="text;html=1;strokeColor=none;fillColor=none;align=left;verticalAlign=middle;whiteSpace=wrap;rounded=0;" vertex="1" parent="1">
          <mxGeometry x="439" y="370" width="120" height="50" as="geometry" />
        </mxCell>
        <mxCell id="bH6gv9mdCXaSQuvATHA7-83" value="PP0&lt;br&gt;no cropping, 1:1" style="text;html=1;strokeColor=none;fillColor=none;align=left;verticalAlign=middle;whiteSpace=wrap;rounded=0;" vertex="1" parent="1">
          <mxGeometry x="839" y="370" width="120" height="50" as="geometry" />
        </mxCell>
        <mxCell id="bH6gv9mdCXaSQuvATHA7-84" value="" style="whiteSpace=wrap;html=1;aspect=fixed;fillColor=#e51400;fontColor=#ffffff;strokeColor=#B20000;" vertex="1" parent="1">
          <mxGeometry x="39" y="560" width="80" height="80" as="geometry" />
        </mxCell>
        <mxCell id="bH6gv9mdCXaSQuvATHA7-85" value="Compressed Recon Data" style="text;html=1;strokeColor=none;fillColor=none;align=left;verticalAlign=middle;whiteSpace=wrap;rounded=0;" vertex="1" parent="1">
          <mxGeometry x="119" y="585" width="160" height="30" as="geometry" />
        </mxCell>
        <mxCell id="bH6gv9mdCXaSQuvATHA7-86" value="" style="rounded=0;whiteSpace=wrap;html=1;fillColor=#60a917;fontColor=#ffffff;strokeColor=#2D7600;" vertex="1" parent="1">
          <mxGeometry x="399" y="560" width="80" height="80" as="geometry" />
        </mxCell>
        <mxCell id="bH6gv9mdCXaSQuvATHA7-87" value="Avaiable Slice Data" style="text;html=1;strokeColor=none;fillColor=none;align=left;verticalAlign=middle;whiteSpace=wrap;rounded=0;" vertex="1" parent="1">
          <mxGeometry x="479" y="585" width="120" height="30" as="geometry" />
        </mxCell>
        <mxCell id="bH6gv9mdCXaSQuvATHA7-88" value="" style="whiteSpace=wrap;html=1;aspect=fixed;fillColor=#cce5ff;strokeColor=#36393d;" vertex="1" parent="1">
          <mxGeometry x="799" y="560" width="80" height="80" as="geometry" />
        </mxCell>
        <mxCell id="bH6gv9mdCXaSQuvATHA7-89" value="Output Buffer" style="text;html=1;strokeColor=none;fillColor=none;align=left;verticalAlign=middle;whiteSpace=wrap;rounded=0;" vertex="1" parent="1">
          <mxGeometry x="879" y="585" width="110" height="30" as="geometry" />
        </mxCell>
        <mxCell id="bH6gv9mdCXaSQuvATHA7-93" value="" style="rounded=0;whiteSpace=wrap;html=1;fillColor=#e3c800;strokeColor=#B09500;fontColor=#000000;" vertex="1" parent="1">
          <mxGeometry x="399" y="680" width="50" height="50" as="geometry" />
        </mxCell>
        <mxCell id="bH6gv9mdCXaSQuvATHA7-94" value="" style="rounded=0;whiteSpace=wrap;html=1;fillColor=#1ba1e2;strokeColor=#006EAF;fontColor=#ffffff;" vertex="1" parent="1">
          <mxGeometry x="399" y="680" width="40" height="40" as="geometry" />
        </mxCell>
        <mxCell id="bH6gv9mdCXaSQuvATHA7-95" value="Uncompressed Recon Data with Padding" style="text;html=1;strokeColor=none;fillColor=none;align=left;verticalAlign=middle;whiteSpace=wrap;rounded=0;" vertex="1" parent="1">
          <mxGeometry x="449" y="685" width="230" height="30" as="geometry" />
        </mxCell>
        <mxCell id="bH6gv9mdCXaSQuvATHA7-96" value="" style="whiteSpace=wrap;html=1;aspect=fixed;fillColor=#1ba1e2;fontColor=#ffffff;strokeColor=#006EAF;" vertex="1" parent="1">
          <mxGeometry x="39" y="680" width="80" height="80" as="geometry" />
        </mxCell>
        <mxCell id="bH6gv9mdCXaSQuvATHA7-97" value="Uncompressed Recon Data" style="text;html=1;strokeColor=none;fillColor=none;align=left;verticalAlign=middle;whiteSpace=wrap;rounded=0;" vertex="1" parent="1">
          <mxGeometry x="119" y="705" width="160" height="30" as="geometry" />
        </mxCell>
        <mxCell id="bH6gv9mdCXaSQuvATHA7-98" value="" style="rounded=0;whiteSpace=wrap;html=1;fillColor=#f8cecc;strokeColor=#b85450;" vertex="1" parent="1">
          <mxGeometry x="799" y="680" width="40" height="40" as="geometry" />
        </mxCell>
        <mxCell id="bH6gv9mdCXaSQuvATHA7-99" value="Unavailable Data (Slice/Output)" style="text;html=1;strokeColor=none;fillColor=none;align=left;verticalAlign=middle;whiteSpace=wrap;rounded=0;" vertex="1" parent="1">
          <mxGeometry x="839" y="680" width="180" height="30" as="geometry" />
        </mxCell>
        <mxCell id="bH6gv9mdCXaSQuvATHA7-103" value="&lt;h1&gt;&lt;span style=&quot;background-color: initial;&quot;&gt;Flexible RFC - Settings for Different Frame Types&lt;/span&gt;&lt;br&gt;&lt;/h1&gt;" style="text;html=1;strokeColor=none;fillColor=none;spacing=5;spacingTop=-20;whiteSpace=wrap;overflow=hidden;rounded=0;" vertex="1" parent="1">
          <mxGeometry x="560" y="20" width="570" height="60" as="geometry" />
        </mxCell>
      </root>
    </mxGraphModel>
  </diagram>
</mxfile>
